<?xml version="1.0" encoding="utf-8"?>
<!-- Generator: Adobe Illustrator 19.0.1, SVG Export Plug-In . SVG Version: 6.00 Build 0)  -->
<svg version="1.1" id="Layer_1" xmlns="http://www.w3.org/2000/svg" xmlns:xlink="http://www.w3.org/1999/xlink" x="0px" y="0px"
	 viewBox="-1130.5 1225.5 390.7 384.3" style="enable-background:new -1130.5 1225.5 390.7 384.3;" xml:space="preserve">
<path d="M-741.6,1405.1c-7-8.7-14.1-17.5-21-26c-4-4.9-8-9.9-12-14.8c-1.6-2-3.2-4-4.7-5.9c-0.7-0.9-1.4-1.8-2.2-2.7l-4-5l4-5
	l11.4-14.2c9.6-12,19.1-23.9,28.5-35.7c0.9-1.1,1.3-2.2,1.1-3c-0.2-0.8-1-1.6-2.2-2.3c-14.2-7.4-28.5-14.7-42.8-22.1
	c-26.6-13.7-54.1-27.9-81.1-41.9c-1.1-0.6-2-0.9-2.8-0.9c-0.3,0-1.3,0-3.2,1.3c-9.9,6.7-20.1,13.5-29.9,20c-8.4,5.6-17,11.3-25.5,17
	c-2.4,1.6-4.8,2.4-7.3,2.4s-4.9-0.8-7.4-2.5c-9-6-18.1-12.1-26.9-18c-9.3-6.2-18.9-12.6-28.4-19c-1.9-1.3-3-1.3-3.4-1.3
	c-0.8,0-1.8,0.3-3,0.9c-26.6,13.8-53.7,27.7-79.8,41.2c-14.7,7.6-29.3,15.1-44,22.7c-1.3,0.7-2.1,1.5-2.3,2.3
	c-0.2,0.9,0.3,2,1.2,3.3c2.6,3.3,5.3,6.7,8,10c1.2,1.5,2.4,2.9,3.6,4.4l18.3,22.8l10,12.4l3.9,4.8l-3.7,5c-0.2,0.3-0.4,0.5-0.5,0.7
	c-0.4,0.6-0.8,1.1-1.2,1.6c-4.5,5.6-9,11.2-13.4,16.8c-8.1,10.2-16.3,20.4-24.4,30.6c-1.1,1.4-1.7,2.8-1.5,3.7
	c0.2,0.9,1.3,2,2.9,2.8c4.1,2.1,8.3,4.3,12.4,6.4c13.5,6.9,27.4,14.1,41.1,21.3c3.1,1.6,6.6,5.2,7.4,9.6c6.4,36.3,12.6,72,17.2,99.1
	c0.4,2.2,1.1,2.9,2.3,3.6c36.5,19.2,73.1,38.4,109.6,57.7c0.8,0.4,1.5,0.6,2.2,0.6c0.6,0,1.3-0.2,2-0.6
	c36.5-19.2,73-38.4,109.6-57.7c1.5-0.8,2-1.5,2.3-3.1c2.7-15.5,5.4-31.3,8-46.6c2.9-16.6,5.8-33.8,8.7-50.7
	c0.7-3.8,2.3-9.3,9.2-12.7c13.2-6.6,26.5-13.5,39.4-20.2c4.3-2.2,8.5-4.4,12.8-6.6c2.1-1.1,3.1-2.2,3.2-2.9
	C-739.8,1408.2-740.2,1406.9-741.6,1405.1z M-921.7,1274.8c16.8-11.2,33.7-22.4,50.4-33.7c1.9-1.2,3.3-1.5,5.3-0.4
	c34.2,17.8,68.5,35.4,102.7,53.2c0.5,0.3,1.1,0.6,2,1.1c-12.3,15.5-24.4,30.9-36.8,46.5c-42.1-21.6-84.1-43.1-126.4-64.7
	C-923.2,1275.9-922.5,1275.3-921.7,1274.8z M-938.6,1284.9c1.8-0.9,3.3-1.5,5.4-0.3c40.6,21,81.2,41.8,121.9,62.7
	c0.6,0.3,1.3,0.7,2.6,1.5c-4.2,2.2-7.9,4.2-11.6,6.2c-0.3,0.2-0.8,0.3-1,0.1c-5.8-3.7-13.3-4-18.4-9.6
	c-11.5-12.6-25.6-19.8-43.2-18.9c-1.2,0.1-2.8-1.2-3.8-2.3c-12.3-13.1-27.1-20.7-45.2-19.7c-6.9,0.4-13.6,3.1-20.4,4.7
	c-1.5,0.4-3.1,1.1-4.6,0.9c-22.2-2.4-39.7,6.4-52.6,23.8c-5.2,7.1-10.6,11.9-19.2,14.1c-5.2,1.3-9.9,4.9-14.9,7.1
	c-1.3,0.6-3.3,0.8-4.6,0.3c-4.5-1.9-8.8-4.2-14-6.7c15-7.8,29.3-15.1,43.5-22.4C-992,1312.5-965.3,1298.7-938.6,1284.9z
	 M-988.4,1366.8c-9.9-2.5-19.8-2.4-29.5,0.8c-3.2,1.1-5.8,1.1-8.6-0.7c-2.1-1.4-4.5-2.4-7.2-3.8c31.5-19.3,72.1-6.2,88.8,24.9
	c-3,0.8-5.9,1.9-8.8,2.3c-1.1,0.1-2.7-1.2-3.5-2.3C-965.2,1377.2-975.5,1370.1-988.4,1366.8z M-963.8,1399.4
	c-14.7-7.6-28.7-14.9-43.1-22.4C-995.1,1374-971.9,1381.7-963.8,1399.4z M-915.5,1340.1c-3.8,4.3-7.4,8.3-10.9,12.3
	c-5.2-4.1-10.5-8.3-16-12.7C-933.2,1336.3-924.5,1337.6-915.5,1340.1z M-936.4,1316.6c9.5-4.5,30.9,2.5,38.8,12.9
	c-3.5,2.1-7,4.1-11.1,1.1c-0.6-0.4-1.3-0.7-2-0.8C-920.9,1328.6-928.6,1322.4-936.4,1316.6z M-956.9,1333.6c-0.6,0.3-1.5,0.2-2.1,0
	c-13.5-3.1-26.4-1.1-38.7,5.1c-0.3,0.2-0.7,0.2-1.1,0.3c11-15.9,36.2-25,57.5-12.1C-946.6,1329.2-951.7,1331.4-956.9,1333.6z
	 M-949.5,1363.2c-0.6,0-1.4-0.5-1.9-0.9c-9.2-8-19.5-13.9-32.3-17.1c15.6-5.3,37.2,0.2,50.5,17.1
	C-938.8,1362.6-944.1,1363-949.5,1363.2z M-915.9,1375.3c-2.2,5-4.1,9.4-6.1,14c-3.1-0.5-6.2-0.9-9.3-1.5c-0.6-0.1-1.3-0.6-1.6-1.2
	c-2.5-4.1-4.8-8.2-7.9-13.3C-932.2,1374-924.3,1374.6-915.9,1375.3z M-919.7,1363.3c10.5-18.7,34.4-31.6,53.3-23.1
	c-16.8,1.9-29.5,10-39.7,22.3c-1.9,2.3-3.6,3.2-6.5,2.4C-914.8,1364.2-917.2,1363.8-919.7,1363.3z M-860.6,1351.9
	c-18.1,8.5-29.1,22.5-36,40.1c-1.7,4.4-6.1,5.9-10.2,3.5c-1.5-0.9-3-1.6-4.5-2.4C-906.3,1370.5-880.8,1349.5-860.6,1351.9z
	 M-833.8,1361.7c-15.5,8-30.7,15.8-46.6,24C-871.4,1366.6-851,1356.2-833.8,1361.7z M-1110.1,1295c1.3-0.7,2.3-1.4,3.4-1.9
	c33.6-17.4,67.2-34.7,100.7-52.1c2.4-1.3,4.1-1.2,6.3,0.3c17.4,11.7,34.8,23.3,52.9,35.4c-42.3,21.8-84.1,43.2-126.1,64.8
	C-1085.3,1326-1097.6,1310.6-1110.1,1295z M-1108.3,1403.4c-0.5-0.3-1-0.7-1.7-1.2c12.4-15.5,24.7-30.9,37.2-46.4
	c41.9,21.7,83.7,43.3,125.7,65.1c-0.7,0.7-1.3,1.3-1.9,1.7c-17.1,11.3-34.1,22.5-51.3,33.7c-1.2,0.7-3.4,1-4.5,0.4
	C-1039.4,1439-1073.9,1421.2-1108.3,1403.4z M-941.1,1589.2c-1.2-0.6-2.3-1.1-3.3-1.6c-29.4-15.5-58.8-31.1-88.3-46.5
	c-2.6-1.4-3.6-3-4-5.9c-4.8-29.4-9.9-58.8-14.8-88.2c-0.1-0.6-0.1-1.2-0.2-2.2c1.5,0.7,2.7,1.3,3.9,1.9c13.5,6.9,27,13.7,40.4,20.9
	c4.3,2.3,7.7,1.9,11.6-0.7c16.9-11.4,33.9-22.5,50.8-33.7c1.1-0.7,2.3-1.5,4-2.6C-941.1,1483.6-941.1,1536.1-941.1,1589.2z
	 M-934.3,1413.4c-0.3,0.2-0.8,0.4-1,0.3c-4.1-2-8.3-3.8-12-6.3c-1.5-1-1.8-3.8-2.7-6.2c12.1-4.1,23.4-3.2,35.3,2.1
	C-921.7,1406.9-928,1410.2-934.3,1413.4z M-822,1464.4c-4.2,23.4-8.4,46.8-12.4,70.2c-0.5,3.2-1.8,5.1-4.7,6.7
	c-29,15.2-57.9,30.6-86.8,46c-1.1,0.6-2.2,1.1-3.6,1.8c0-52.8,0-105.4,0-158.4c1.4,0.9,2.6,1.5,3.7,2.3
	c17.3,11.4,34.7,22.6,51.9,34.1c3.8,2.5,7,2.7,10.9,0.6c13.4-7.1,26.9-13.9,40.4-20.8c1.2-0.6,2.4-1.2,4.2-2.1
	C-819.7,1451.7-820.9,1458.1-822,1464.4z M-764.2,1404.2c-33.7,17.4-67.5,34.7-101.2,52.1c-1.8,0.9-3.2,1.7-5.4,0.3
	c-17.1-11.4-34.3-22.7-51.5-34c-0.6-0.4-1.1-0.9-2-1.6c42.1-21.8,83.9-43.4,125.9-65.2c12.6,15.5,25,30.9,37.7,46.5
	C-762.1,1403-763.1,1403.6-764.2,1404.2z"/>
</svg>
