<?xml version="1.0" encoding="utf-8"?>
<!-- Generator: Adobe Illustrator 19.0.1, SVG Export Plug-In . SVG Version: 6.00 Build 0)  -->
<svg version="1.1" id="Layer_1" xmlns="http://www.w3.org/2000/svg" xmlns:xlink="http://www.w3.org/1999/xlink" x="0px" y="0px"
	 viewBox="-1110.5 1180.3 351.1 475.6" style="enable-background:new -1110.5 1180.3 351.1 475.6;" xml:space="preserve">
<g>
	<path d="M-1038.3,1323.1c0,5.4,0.3,10.4-0.2,15.3c-0.1,1.4-2,3.2-3.5,3.9c-10.3,4.3-20.7,8.4-31,12.5c-1.4,0.5-2.7,1.2-5.1,2.2
		c2.9,1.2,4.9,2.1,7,2.9c9.7,3.9,19.4,8,29.2,11.7c2.8,1.1,3.9,2.5,3.7,5.5c-0.2,4.5-0.1,9-0.1,14.6c-17.8-7.1-34.8-13.9-51.9-20.8
		c-1.4,3.5,0.1,5.2,3.1,6.7c14.4,7,28.5,14.4,43,21.1c5.3,2.4,6.8,5.6,5.1,11.5c-16.4-8.1-32.7-16.1-50-24.6
		c7.6,54,15.1,107.2,22.8,161.7c15.3-13.4,29.8-26.1,44.6-39c-10.1-16.7-20.1-33.1-30.3-49.8c4.3-3.2,8.4-6.2,12.5-9.2
		c0.4,0.2,0.9,0.4,1.3,0.5c-0.5,3.8-1,7.6-1.8,13.2c31,50.9,63.1,103.6,95.8,157.4c0.2-2.4,0.5-3.6,0.5-4.8c0-54.7,0-109.3,0.1-164
		c0-3.4-1.2-5-4.1-6.3c-13.3-6.1-26.6-12.3-39.7-18.8c-3.6-1.8-6.3-1.9-9.3,1c-1.9,1.8-4.2,3.2-6.4,4.8c-1.8-7.4,2.9-15.6,9.6-16.7
		c1.1-0.2,2.5,0.6,3.7,1.1c13.4,6.3,26.8,12.7,40.2,19c1.8,0.8,3.6,1.6,5.4,2.5c1.7-5.6,0.2-8.4-5.2-10.4c-17.1-6.5-34-13.6-51-20.4
		c-2.5-1-3.7-2.1-3.6-5c0.3-4.8,0.1-9.6,0.1-14.9c3.1,1.2,5.5,2,8,3c19.1,7.7,38.2,15.5,57.4,23c2,0.8,4.9,0.9,7,0.1
		c41.4-16.6,82.7-33.3,124-50c5.2-2.1,10.4-4.1,16.8-6.5c-14.7-6.2-28.2-11.8-41.6-17.4c-31.6-13.2-63.2-26.4-94.9-39.5
		c-2.3-0.9-5.5-1-7.8-0.1c-20.8,8-41.5,16.4-62.2,24.6c-2,0.8-4,1.5-6.6,2.5c0-5.7-0.2-11,0.1-16.2c0.1-1.2,1.5-2.8,2.7-3.3
		c21.9-8.9,43.8-17.7,65.8-26.2c2.6-1,6.3-0.7,9,0.4c25.4,10.4,50.7,21,76.1,31.6c2.1,0.9,4.2,1.7,7.1,2.9
		c-2.4-13-4.6-25.2-6.8-37.4c-4.3-23.4-8.5-46.8-12.9-70.2c-1.8-9.5-8-13.1-17.2-9.9c-38.1,13.4-76.2,26.9-114.3,40.5
		c-11,3.9-18.3,14.7-18.3,26.7c0,54,0,108,0,162c0,10.7,0,21.3-0.1,32c0,6.4-3.3,10.1-8.5,10.2c-5.2,0-8.7-3.9-8.7-10
		c0-65.5-0.3-131,0.2-196.5c0.2-18.5,10-32.9,27.4-39.5c39.4-14.8,79.2-28.6,118.9-42.3c17-5.9,34,4.7,37.3,22.4
		c7.2,38.3,14.1,76.6,21,114.9c0.7,4,2.3,5.9,6,7.4c17.1,6.9,34.1,14.2,51.1,21.3c8,3.4,9.2,5.1,8,13.6
		c-6.5,46.5-13.1,93-19.7,139.5c-2.7,19.3-5.3,38.6-8.4,57.8c-0.5,3-2.7,6.7-5.3,8.3c-45.1,29-90.3,57.8-135.5,86.7
		c-4.3,2.8-8.2,2.7-12.5,0c-45.2-28.9-90.4-57.6-135.5-86.7c-2.5-1.6-4.8-5.3-5.2-8.3c-6.5-44.5-12.8-89-19.1-133.5
		c-3.1-21.9-6.2-43.9-9.3-65.8c-0.7-5,0.9-8.5,5.6-10.4c21.3-8.6,42.6-17.1,63.9-25.6C-1040,1323-1039.5,1323.1-1038.3,1323.1z
		 M-778.4,1370.8c-1.7,0.5-2.7,0.8-3.6,1.2c-46.7,18.8-93.5,37.7-140.3,56.4c-3.4,1.4-3.7,3.4-3.7,6.5c0.1,63.6,0,127.3,0.1,190.9
		c0,1.6,0.2,3.1,0.3,4.6c0.6,0,0.8,0.1,0.9,0c39.5-25.1,78.9-50.2,118.3-75.4c1.2-0.8,2.3-2.5,2.5-3.9c1.2-7.4,2.1-14.8,3.2-22.2
		c5.5-39.1,11-78.1,16.5-117.2C-782.3,1398.3-780.4,1385-778.4,1370.8z M-1062.9,1555.1c38,24.2,75.3,48,112.5,71.7
		c0.2-0.3,0.4-0.6,0.7-0.8c-22.4-36.8-44.9-73.7-67.6-110.9C-1032.6,1528.6-1047.5,1541.6-1062.9,1555.1z"/>
</g>
</svg>
