<?xml version="1.0" encoding="utf-8"?>
<!-- Generator: Adobe Illustrator 19.0.1, SVG Export Plug-In . SVG Version: 6.00 Build 0)  -->
<svg version="1.1" id="Layer_1" xmlns="http://www.w3.org/2000/svg" xmlns:xlink="http://www.w3.org/1999/xlink" x="0px" y="0px"
	 viewBox="-1025.1 1327.3 180.8 180.8" style="enable-background:new -1025.1 1327.3 180.8 180.8;" xml:space="preserve">
<style type="text/css">
	.st0{fill:#F6A318;}
	.st1{fill:none;stroke:#F6A318;stroke-width:6;stroke-linecap:round;stroke-miterlimit:10;}
</style>
<g>
	<g transform="translate(0,-952.36218)">
		<path class="st0" d="M-937.3,2308.8c0,0-1,12.1-3.3,20.3c-1.9,6.9-5,14.4-8.5,19.4c-2-4.9-3.3-9.1-5-14.2
			c-2.1,5.6-4.1,11.8-5.4,16.4c-1.5,5.3-3,11.8-3,17c0,17.5,12.2,32.1,27.8,32.1c15.5,0,27.8-14.6,27.8-32.1
			c0-6.7-2.8-17.8-5.4-27.8c-2.3-8.7-5-17.3-7.8-26c-1.3,4.2-2.8,8.9-4.1,12.6C-927.3,2319.7-932.2,2313.4-937.3,2308.8z
			 M-933.4,2320.7c2.1,3.7,4.9,8,6.1,12c0.6,1.8,2.1,2.2,3.9,2c1.7-0.9,2.2-2.7,2.9-4.3c1,3.3,1.6,5,3.2,10.9
			c2.7,9.8,5.2,21.3,5.2,26.5c0,15.2-10.4,27.1-22.7,27.1c-12.3,0-22.7-11.9-22.7-27.1c0.4-6.1,1.9-13.1,3.5-17.8
			c0.6,1.6,1.4,3.2,2.2,4.4c1.2,1.4,2.8,1,4.2,0.3c5.8-5.9,9.4-15.8,11.8-24.2C-934.7,2326.7-933.9,2323.4-933.4,2320.7
			L-933.4,2320.7z M-957.8,2400.7l18.1,10.4l-18.1,10.4c-1.1,0.7-1.6,2.3-0.9,3.4c0.7,1.1,2.3,1.6,3.4,0.9l20.6-11.8l20.6,11.8
			c1.1,0.7,2.8,0.2,3.4-0.9c0.7-1.1,0.2-2.8-0.9-3.4l-18.1-10.4l18.1-10.4c1.3-1.3,1.4-2.1,0.8-3.4c-0.9-1.2-1.9-1.4-3.4-0.9
			l-20.6,11.8l-20.6-11.8c-1.3-0.7-2.4-0.1-3.1,0.7C-959.7,2398.4-958.7,2399.9-957.8,2400.7z"/>
	</g>
	<circle class="st1" cx="-934.7" cy="1417.7" r="87.4"/>
</g>
</svg>
