<?xml version="1.0" encoding="utf-8"?>
<!-- Generator: Adobe Illustrator 19.0.1, SVG Export Plug-In . SVG Version: 6.00 Build 0)  -->
<svg version="1.1" id="Layer_1" xmlns="http://www.w3.org/2000/svg" xmlns:xlink="http://www.w3.org/1999/xlink" x="0px" y="0px"
	 viewBox="-998.5 1356.2 121.8 121.8" style="enable-background:new -998.5 1356.2 121.8 121.8;" xml:space="preserve">
<style type="text/css">
	.st0{fill:#FF4613;}
	.st1{fill:#FFFFFF;}
</style>
<circle class="st0" cx="-937.6" cy="1417.1" r="60.9"/>
<g>
	<path class="st1" d="M-945.3,1444.8c0,2.9-3.2,3.5-6.1,3.5c-2.9,0-6.1-0.6-6.1-3.5v-52.3c0-4.4,2.6-7,8.4-7h12.4
		c12.9,0,20.6,5.3,20.6,16.8c0,7.9-3.1,11.9-7.9,15.1c-1.6,1-2.2,1.7-2.2,3c0,1,0.6,2.1,1.3,3.2l11.3,17.7c0.3,0.5,0.6,1.4,0.6,2.2
		c0,3-3.4,4.7-7,4.7c-3.2,0-4.4-1.2-5.4-2.8l-9.8-17.4c-1.8-3.2-2.9-4.3-6.1-4.3c-2.8,0-3.8,1-3.8,2.9v18.2H-945.3z M-945.3,1412.1
		c0,3.3,0.6,3.9,4.4,3.9c7.4,0,12-2.5,12-11.6c0-7.6-3.6-10.1-9.8-10.1c-6,0-6.6,0.3-6.6,3.9L-945.3,1412.1L-945.3,1412.1z"/>
</g>
</svg>
