<?xml version="1.0" encoding="utf-8"?>
<!-- Generator: Adobe Illustrator 19.0.1, SVG Export Plug-In . SVG Version: 6.00 Build 0)  -->
<svg version="1.1" id="Layer_1" xmlns="http://www.w3.org/2000/svg" xmlns:xlink="http://www.w3.org/1999/xlink" x="0px" y="0px"
	 viewBox="-998.1 1356.7 122 122" style="enable-background:new -998.1 1356.7 122 122;" xml:space="preserve">
<style type="text/css">
	.st0{fill:#F7A707;}
	.st1{fill:#FFFFFF;}
	.st2{fill:#EF7919;}
	.st3{fill:#51545B;}
</style>
<g>
	<circle class="st0" cx="-2176.8" cy="2388.8" r="38.7"/>
	<g>
		<path class="st1" d="M-2175.4,2401.3c1.6-5.9,5.4-22.9,6.6-29.5c0.3-1.8,1.7-2.2,3.3-2.2c2.2,0,4.4,0.9,4.4,2.5
			c0,3.1-6.4,28.5-8.8,35.3c-0.9,2.4-3.5,2.6-6.7,2.6c-3.2,0-6-0.1-6.9-2.6c-2.4-6.9-8.8-32.1-8.8-35.3c0-1.6,2-2.5,4.4-2.5
			c1.6,0,3.1,0.3,3.4,2.2c1.2,6.5,5,23.6,6.7,29.5c0.4,1.2,0.8,1.3,1.2,1.3C-2176,2402.6-2175.8,2402.5-2175.4,2401.3z"/>
	</g>
</g>
<g>
	<g>
		<circle class="st0" cx="-934.7" cy="2388.8" r="38.7"/>
	</g>
	<g>
		<path class="st1" d="M-916.8,2379.4c-0.6-0.3-0.8-0.9-0.5-1.5c0.8-1.6,1.2-3.1,1.3-4.5c0.1-1.4-0.8-2.7-1.5-4.1
			c0.4-0.8,1.7-1.2,2.6-1.1c0.9,1.8,1.2,3.6,1.2,5.4c-0.1,1.8-0.6,3.6-1.5,5.4C-915.6,2379.4-916.2,2379.6-916.8,2379.4
			L-916.8,2379.4z"/>
		<path class="st1" d="M-921.8,2378.9c1.5-1.7,3.7-3.2,6.4-2.2c2,0.7,3,3.3,2.7,5.8C-914.9,2379.9-918.4,2379.1-921.8,2378.9
			L-921.8,2378.9z"/>
		<path class="st1" d="M-912.3,2383.3c1.9,6.8-3.6,15.2-10.9,20.3c-9.3,6.5-24.9,9.4-38.6-1.3c-0.4-0.3-0.3-0.8,0.1-0.7
			c15.4,3.6,28.2-1.1,35.2-18.5C-924,2376.8-914.1,2377-912.3,2383.3L-912.3,2383.3z"/>
		<path class="st1" d="M-919.4,2386.3c0,3.2-2.9,7.6-6.8,11.1c-4.1,3.7-9.6,6.2-15,6.8c-2,0.1-2.6-1.2,0.8-2.4
			c6.3-2.6,11.4-8.1,15-16.9C-924.3,2382.3-919.4,2383.6-919.4,2386.3L-919.4,2386.3z"/>
	</g>
</g>
<g>
	<circle class="st1" cx="293.3" cy="1417.7" r="61"/>
	<g>
		<path class="st2" d="M285.7,1445.5c0,2.9-3.2,3.5-6.1,3.5s-6.2-0.6-6.2-3.5v-52.4c0-4.4,2.6-7,8.4-7h12.4c13,0,20.6,5.3,20.6,16.8
			c0,7.9-3.1,12-7.9,15.2c-1.6,1-2.2,1.7-2.2,3c0,1,0.6,2.1,1.3,3.2l11.3,17.7c0.3,0.5,0.6,1.4,0.6,2.2c0,3-3.4,4.7-7,4.7
			c-3.2,0-4.4-1.2-5.4-2.8l-9.8-17.5c-1.8-3.2-2.9-4.3-6.2-4.3c-2.8,0-3.8,1-3.8,2.9L285.7,1445.5L285.7,1445.5z M285.7,1412.7
			c0,3.3,0.6,4,4.4,4c7.5,0,12-2.5,12-11.6c0-7.6-3.6-10.1-9.8-10.1c-6,0-6.6,0.3-6.6,4V1412.7z"/>
	</g>
</g>
<g>
	<circle class="st1" cx="-937.1" cy="1417.7" r="61"/>
	<g>
		<path class="st2" d="M-927,1389.2c0-2.9,3.4-3.5,6.2-3.5c3.2,0,6.1,0.6,6.1,3.5v56.3c0,2.9-3.4,3.5-6.1,3.5
			c-2.9,0-6.2-0.3-6.2-3.5v-21.7c0-1.9-0.2-2.4-2.4-2.4h-15.2c-2.2,0-2.6,0.4-2.6,2.5v21.6c0,2.9-3.5,3.5-6.2,3.5
			c-3.2,0-6.1-0.5-6.1-3.5v-56.3c0-2.9,3.4-3.5,6.1-3.5c3,0,6.2,0.6,6.2,3.5v20.1c0,1.9,0.4,2.4,2.6,2.4h15.2c2.2,0,2.4-0.4,2.4-2.5
			V1389.2z"/>
	</g>
</g>
<g>
	<g>
		<path class="st3" d="M-2196.2,1448.4c-0.6,0-1.2-0.2-1.8-0.4c-1.3-0.7-2-2-2-3.4v-53.7c0-1.5,0.8-2.8,2-3.4c1.3-0.7,2.8-0.6,4,0.3
			l44.9,26.7c0.7,0.5,1.2,1.2,1.5,1.9c0.2,0.2,0.4,0.4,0.5,0.7l0.7,1.6l-1.5,1.1l-46.3,28
			C-2194.6,1448.2-2195.4,1448.4-2196.2,1448.4z M-2192.4,1398v39.6l34.1-19.8L-2192.4,1398z"/>
		<path class="st3" d="M-2176.8,1473.1c-29.6,0-53.6-24.8-53.6-55.3s24.1-55.3,53.6-55.3c29.6,0,53.6,24.8,53.6,55.3
			S-2147.3,1473.1-2176.8,1473.1z M-2176.8,1370.1c-25.4,0-46,21.4-46,47.6s20.6,47.6,46,47.6c25.4,0,46-21.4,46-47.6
			S-2151.5,1370.1-2176.8,1370.1z"/>
	</g>
</g>
</svg>
