<?xml version="1.0" encoding="utf-8"?>
<!-- Generator: Adobe Illustrator 19.0.1, SVG Export Plug-In . SVG Version: 6.00 Build 0)  -->
<svg version="1.1" id="Layer_1" xmlns="http://www.w3.org/2000/svg" xmlns:xlink="http://www.w3.org/1999/xlink" x="0px" y="0px"
	 viewBox="-1209.7 1142.8 550 550" style="enable-background:new -1209.7 1142.8 550 550;" xml:space="preserve">
<style type="text/css">
	.st0{fill:url(#SVGID_1_);}
	.st1{fill:url(#SVGID_2_);}
	.st2{fill:#FFFFFF;}
</style>
<linearGradient id="SVGID_1_" gradientUnits="userSpaceOnUse" x1="-1095.1" y1="1405.4" x2="-774.1999" y2="1405.4" gradientTransform="matrix(1 0 0 -1 0 2836.1501)">
	<stop  offset="0" style="stop-color:#F7A600"/>
	<stop  offset="0.2517" style="stop-color:#F28D00"/>
	<stop  offset="0.7994" style="stop-color:#E64610"/>
	<stop  offset="1" style="stop-color:#E32313"/>
</linearGradient>
<path class="st0" d="M-1004.1,1444.4c-4.3,0-8.5-0.3-12.5-0.7c-4.1-0.5-7.7-1.5-11-3c-3.3-1.5-5.8-3.8-7.8-6.8
	c-1.9-3-2.9-7.1-2.9-12.2v-79c0-1.3-0.1-2.7-0.4-4.1c-0.2-1.4-0.7-2.7-1.4-3.8c-0.7-1.2-1.7-2.1-3-2.8c-1.3-0.7-3.2-1.1-5.5-1.1
	c-3,0-5.5,0.7-7.5,2.2c-0.9-1.9-1.4-3.7-1.4-5.3c0-1.9,0.4-3.9,1.3-5.7c0.9-1.9,2.3-3.5,4.2-5c1.9-1.4,4.3-2.6,7.2-3.5
	c2.9-0.9,6.5-1.4,10.8-1.4c9.5,0,16.8,2.2,22.1,6.5c5.2,4.4,7.8,10.4,7.8,18V1444.4z M-928.3,1434.3c0.9-1.9,1.3-3.8,1.3-5.7
	c0-1-0.1-1.9-0.4-2.6c-0.2-0.8-0.6-1.7-1.1-2.6c-2.2,1.4-4.7,2.2-7.5,2.2c-2.3,0-4.2-0.4-5.5-1.1c-1.3-0.7-2.3-1.7-3-2.8
	c-0.7-1.2-1.2-2.4-1.4-3.8c-0.2-1.4-0.4-2.8-0.4-4.1v-101.9c-4.3,0-8.5,0.2-12.5,0.7c-4.1,0.5-7.7,1.5-11,3s-5.9,3.8-7.8,6.8
	c-1.9,3-2.9,7.1-2.9,12.2v85c0,7.6,2.6,13.6,7.8,18s12.6,6.5,22.1,6.5c4.3,0,7.9-0.5,10.8-1.4c2.9-0.9,5.3-2.1,7.2-3.5
	C-930.6,1437.8-929.2,1436.1-928.3,1434.3z M-1070.5,1316.7c-2.8-1.6-6.1-2.8-9.7-3.4c-3.6-0.7-7.4-1-11.1-1h-3.8v110.4
	c0,4.5,0.9,8.1,2.7,10.9c1.8,2.8,4.2,5,7.1,6.5c2.9,1.6,6.3,2.7,10.1,3.3s7.8,0.9,11.9,0.9h2.4v-110.2c0-4.4-0.9-7.9-2.6-10.7
	C-1065.4,1320.6-1067.7,1318.4-1070.5,1316.7z M-817.7,1439.3c1.9-1.5,3.3-3.1,4.1-5c0.9-1.9,1.3-3.8,1.3-5.7c0-1-0.1-1.9-0.4-2.6
	c-0.2-0.8-0.6-1.7-1.1-2.6c-2.2,1.4-4.7,2.2-7.5,2.2c-2.3,0-4.2-0.4-5.5-1.1c-1.3-0.7-2.3-1.7-3-2.8c-0.7-1.2-1.2-2.4-1.4-3.8
	c-0.2-1.4-0.3-2.8-0.3-4.1v-101.9c-4.3,0-8.5,0.2-12.5,0.7c-4.1,0.5-7.7,1.5-11,3s-5.9,3.8-7.8,6.8c-1.9,3-2.9,7.1-2.9,12.2v85
	c0,7.6,2.6,13.6,7.8,18s12.6,6.5,22.1,6.5c4.3,0,7.9-0.5,10.8-1.4C-822,1441.9-819.6,1440.7-817.7,1439.3z M-777.4,1433.8
	c1.9-3,2.9-7.1,2.9-12.2v-85c0-7.6-2.6-13.6-7.8-18c-5.2-4.4-12.6-6.5-22.1-6.5c-4.3,0-7.9,0.4-10.8,1.4c-2.9,0.9-5.3,2.1-7.2,3.5
	c-1.9,1.5-3.3,3.1-4.1,5c-0.9,1.9-1.3,3.8-1.3,5.7c0,1.6,0.5,3.3,1.4,5.3c2-1.5,4.5-2.2,7.5-2.2c2.3,0,4.2,0.4,5.5,1.1
	s2.3,1.7,3,2.8c0.7,1.1,1.2,2.4,1.4,3.8s0.4,2.8,0.4,4.1v101.7c4.3,0,8.5-0.3,12.5-0.7c4.1-0.5,7.7-1.5,11-3
	C-781.9,1439.1-779.3,1436.8-777.4,1433.8z M-892.2,1433.8c1.9-3,2.9-7.1,2.9-12.2v-85c0-7.6-2.6-13.6-7.8-18
	c-5.2-4.4-12.6-6.5-22-6.5c-4.3,0-7.9,0.4-10.8,1.4c-2.9,0.9-5.3,2.1-7.2,3.5c-1.9,1.5-3.3,3.1-4.2,5s-1.3,3.8-1.3,5.7
	c0,1.6,0.5,3.3,1.4,5.3c2-1.5,4.5-2.2,7.5-2.2c2.3,0,4.2,0.4,5.5,1.1s2.3,1.7,3,2.8c0.7,1.1,1.2,2.4,1.4,3.8s0.3,2.8,0.3,4.1v101.7
	c4.3,0,8.5-0.3,12.5-0.7c4.1-0.5,7.7-1.5,11-3C-896.7,1439.1-894.1,1436.8-892.2,1433.8z M-784.7,1538.5c0,0.5,0,1-0.1,1.5
	s-0.2,1-0.5,1.4c-0.2,0.4-0.6,0.8-1.1,1c-0.5,0.3-1.1,0.4-2,0.4c-1,0-1.9-0.3-2.7-0.8c-0.2,0.4-0.3,0.7-0.4,1
	c-0.1,0.3-0.1,0.6-0.1,1c0,0.7,0.2,1.4,0.5,2.1c0.3,0.7,0.8,1.3,1.5,1.8s1.6,1,2.6,1.3c1.1,0.3,2.4,0.5,3.9,0.5
	c3.4,0,8.9-3.4,8.9-8.9v-4.1v-0.3v-52v-4.1c0-5.5-5.4-8.9-8.9-8.9c-1.6,0-2.9,0.2-3.9,0.5c-1.1,0.3-1.9,0.8-2.6,1.3
	c-0.7,0.5-1.2,1.1-1.5,1.8c-0.3,0.7-0.5,1.4-0.5,2.1c0,0.4,0,0.7,0.1,1c0.1,0.3,0.2,0.6,0.4,1c0.8-0.5,1.7-0.8,2.7-0.8
	c0.9,0,1.5,0.1,2,0.4s0.9,0.6,1.1,1c0.3,0.4,0.4,0.9,0.5,1.4s0.1,1,0.1,1.5V1538.5z M-1084.6,1482.4c0-0.5,0-1,0.1-1.5
	c0.1-0.5,0.2-1,0.5-1.4c0.2-0.4,0.6-0.8,1.1-1c0.5-0.3,1.1-0.4,2-0.4c1,0,1.9,0.3,2.7,0.8c0.2-0.4,0.3-0.7,0.4-1
	c0.1-0.3,0.1-0.6,0.1-1c0-0.7-0.2-1.4-0.5-2.1c-0.3-0.7-0.8-1.3-1.5-1.8c-0.7-0.5-1.6-1-2.6-1.3c-1.1-0.3-2.4-0.5-3.9-0.5
	c-3.4,0-8.9,3.4-8.9,8.9v4.1v0.3v52v4.1c0,5.5,5.4,8.9,8.9,8.9c1.6,0,2.9-0.2,3.9-0.5c1.1-0.3,1.9-0.8,2.6-1.3
	c0.7-0.5,1.2-1.1,1.5-1.8c0.3-0.7,0.5-1.4,0.5-2.1c0-0.4,0-0.7-0.1-1c-0.1-0.3-0.2-0.6-0.4-1c-0.8,0.5-1.7,0.8-2.7,0.8
	c-0.9,0-1.5-0.1-2-0.4s-0.9-0.6-1.1-1c-0.3-0.4-0.4-0.9-0.5-1.4c-0.1-0.5-0.1-1-0.1-1.5V1482.4z M-994.2,1502.5v15.2
	c0,8-5.9,10.9-11.5,10.9s-11.6-2.9-11.6-10.9v-15.2c0-7.2,4.4-11.5,11.6-11.5C-998.6,1490.9-994.2,1495.3-994.2,1502.5z
	 M-1000.4,1502.6c0-3.7-1.7-5.5-5.3-5.5s-5.3,1.7-5.3,5.5v14.7c0,4.5,3.7,5,5.3,5c2,0,5.3-0.7,5.3-5.1V1502.6z M-955.5,1502.5v15.2
	c0,8-5.9,10.9-11.5,10.9s-11.6-2.9-11.6-10.9v-15.2c0-7.2,4.4-11.5,11.7-11.5C-959.9,1490.9-955.5,1495.3-955.5,1502.5z
	 M-961.7,1502.6c0-3.7-1.7-5.5-5.3-5.5s-5.3,1.7-5.3,5.5v14.7c0,4.5,3.7,5,5.3,5c2,0,5.3-0.7,5.3-5.1V1502.6z M-1040.2,1513.9
	l-13.9-22.4h-5.8l0.3,36.4h6.5v-22.5l13.9,22.4l5.5,0.1v-36.4h-6.5V1513.9z M-893.7,1491.3h-6.5v36.7h20.2v-6.3h-13.7V1491.3z
	 M-819.6,1505.5c-3.3-1.5-6.2-2.7-6.1-4.7c0-0.8,0.5-1.9,1-2.3c0.9-0.8,2.7-1.2,4.9-1.1c1.7,0.1-1.7-6.4-2.6-6.3
	c-6.5,0.6-9.7,4.9-10,9c-0.4,6.7,5.3,9.2,9.8,11.2s7.2,3.4,7,6.5c-0.2,3.5-3.6,4.3-5.6,4.3c-0.3,0-0.5,0-0.6,0
	c-3.6-0.2-5.8-2.8-5.9-5v-1.6h-6.5v1.6c-0.1,5.2,4,10.8,12.1,11.3c0.5,0,0.9,0,1.4,0c7.4,0,11.6-3.8,12.1-10.5
	C-808.3,1510.4-814.8,1507.7-819.6,1505.5z M-866.2,1528h18.8v-6.4h-12.3v-9.8h8.7v-6.6h-8.6v-7.4h12.4v-6.4l-18.9-0.1v36.7H-866.2z
	 M-916.4,1503.8v13c0,7.2-4.1,11.1-11.7,11.1h-11.5v-36.4h10.6C-921.3,1491.4-916.4,1496.2-916.4,1503.8z M-922.7,1503.5
	c0-5.2-4.1-5.8-5.9-5.8h-4.8v24.5h4.5c4.4,0,6.2-1.4,6.2-4.7V1503.5z M-815.2,1501.5l6.3-1c-0.5-3.6-2.9-7-7.1-8.5
	c-1.8-0.7-3.7-1-6.1-0.9c-0.5,0-1,0.1-1.5,0.2l1.2,6.2c0.3,0,0.5-0.1,0.6-0.1C-818.1,1497.4-815.7,1499.4-815.2,1501.5z"/>
<g>
	
		<linearGradient id="SVGID_2_" gradientUnits="userSpaceOnUse" x1="-2166.1479" y1="4619.7593" x2="-1616.1478" y2="4619.7593" gradientTransform="matrix(4.489700e-011 1 1 -4.489700e-011 -5554.4595 3308.8979)">
		<stop  offset="0" style="stop-color:#F7A600"/>
		<stop  offset="0.2517" style="stop-color:#F28D00"/>
		<stop  offset="0.7994" style="stop-color:#E64610"/>
		<stop  offset="1" style="stop-color:#E32313"/>
	</linearGradient>
	<circle class="st1" cx="-934.7" cy="1417.8" r="275"/>
	<path class="st2" d="M-1004.1,1444.4c-4.3,0-8.5-0.3-12.5-0.7c-4.1-0.5-7.7-1.5-11-3c-3.3-1.5-5.8-3.8-7.8-6.8
		c-1.9-3-2.9-7.1-2.9-12.2v-79c0-1.3-0.1-2.7-0.4-4.1c-0.2-1.4-0.7-2.7-1.4-3.8c-0.7-1.2-1.7-2.1-3-2.8c-1.3-0.7-3.2-1.1-5.5-1.1
		c-3,0-5.5,0.7-7.5,2.2c-0.9-1.9-1.4-3.7-1.4-5.3c0-1.9,0.4-3.9,1.3-5.7c0.9-1.9,2.3-3.5,4.2-5c1.9-1.4,4.3-2.6,7.2-3.5
		c2.9-0.9,6.5-1.4,10.8-1.4c9.5,0,16.8,2.2,22.1,6.5c5.2,4.4,7.8,10.4,7.8,18V1444.4z M-928.3,1434.3c0.9-1.9,1.3-3.8,1.3-5.7
		c0-1-0.1-1.9-0.4-2.6c-0.2-0.8-0.6-1.7-1.1-2.6c-2.2,1.4-4.7,2.2-7.5,2.2c-2.3,0-4.2-0.4-5.5-1.1c-1.3-0.7-2.3-1.7-3-2.8
		c-0.7-1.2-1.2-2.4-1.4-3.8c-0.2-1.4-0.4-2.8-0.4-4.1v-101.9c-4.3,0-8.5,0.2-12.5,0.7c-4.1,0.5-7.7,1.5-11,3s-5.9,3.8-7.8,6.8
		c-1.9,3-2.9,7.1-2.9,12.2v85c0,7.6,2.6,13.6,7.8,18s12.6,6.5,22.1,6.5c4.3,0,7.9-0.5,10.8-1.4c2.9-0.9,5.3-2.1,7.2-3.5
		C-930.6,1437.8-929.2,1436.1-928.3,1434.3z M-1070.5,1316.7c-2.8-1.6-6.1-2.8-9.7-3.4c-3.6-0.7-7.4-1-11.1-1h-3.8v110.4
		c0,4.5,0.9,8.1,2.7,10.9c1.8,2.8,4.2,5,7.1,6.5c2.9,1.6,6.3,2.7,10.1,3.3s7.8,0.9,11.9,0.9h2.4v-110.2c0-4.4-0.9-7.9-2.6-10.7
		C-1065.4,1320.6-1067.7,1318.4-1070.5,1316.7z M-817.7,1439.3c1.9-1.5,3.3-3.1,4.1-5c0.9-1.9,1.3-3.8,1.3-5.7c0-1-0.1-1.9-0.4-2.6
		c-0.2-0.8-0.6-1.7-1.1-2.6c-2.2,1.4-4.7,2.2-7.5,2.2c-2.3,0-4.2-0.4-5.5-1.1c-1.3-0.7-2.3-1.7-3-2.8c-0.7-1.2-1.2-2.4-1.4-3.8
		c-0.2-1.4-0.3-2.8-0.3-4.1v-101.9c-4.3,0-8.5,0.2-12.5,0.7c-4.1,0.5-7.7,1.5-11,3s-5.9,3.8-7.8,6.8c-1.9,3-2.9,7.1-2.9,12.2v85
		c0,7.6,2.6,13.6,7.8,18s12.6,6.5,22.1,6.5c4.3,0,7.9-0.5,10.8-1.4C-822,1441.9-819.6,1440.7-817.7,1439.3z M-777.4,1433.8
		c1.9-3,2.9-7.1,2.9-12.2v-85c0-7.6-2.6-13.6-7.8-18c-5.2-4.4-12.6-6.5-22.1-6.5c-4.3,0-7.9,0.4-10.8,1.4c-2.9,0.9-5.3,2.1-7.2,3.5
		c-1.9,1.5-3.3,3.1-4.1,5c-0.9,1.9-1.3,3.8-1.3,5.7c0,1.6,0.5,3.3,1.4,5.3c2-1.5,4.5-2.2,7.5-2.2c2.3,0,4.2,0.4,5.5,1.1
		s2.3,1.7,3,2.8c0.7,1.1,1.2,2.4,1.4,3.8s0.4,2.8,0.4,4.1v101.7c4.3,0,8.5-0.3,12.5-0.7c4.1-0.5,7.7-1.5,11-3
		C-781.9,1439.1-779.3,1436.8-777.4,1433.8z M-892.2,1433.8c1.9-3,2.9-7.1,2.9-12.2v-85c0-7.6-2.6-13.6-7.8-18
		c-5.2-4.4-12.6-6.5-22-6.5c-4.3,0-7.9,0.4-10.8,1.4c-2.9,0.9-5.3,2.1-7.2,3.5c-1.9,1.5-3.3,3.1-4.2,5s-1.3,3.8-1.3,5.7
		c0,1.6,0.5,3.3,1.4,5.3c2-1.5,4.5-2.2,7.5-2.2c2.3,0,4.2,0.4,5.5,1.1s2.3,1.7,3,2.8c0.7,1.1,1.2,2.4,1.4,3.8s0.3,2.8,0.3,4.1v101.7
		c4.3,0,8.5-0.3,12.5-0.7c4.1-0.5,7.7-1.5,11-3C-896.7,1439.1-894.1,1436.8-892.2,1433.8z M-784.7,1538.5c0,0.5,0,1-0.1,1.5
		s-0.2,1-0.5,1.4c-0.2,0.4-0.6,0.8-1.1,1c-0.5,0.3-1.1,0.4-2,0.4c-1,0-1.9-0.3-2.7-0.8c-0.2,0.4-0.3,0.7-0.4,1
		c-0.1,0.3-0.1,0.6-0.1,1c0,0.7,0.2,1.4,0.5,2.1c0.3,0.7,0.8,1.3,1.5,1.8s1.6,1,2.6,1.3c1.1,0.3,2.4,0.5,3.9,0.5
		c3.4,0,8.9-3.4,8.9-8.9v-4.1v-0.3v-52v-4.1c0-5.5-5.4-8.9-8.9-8.9c-1.6,0-2.9,0.2-3.9,0.5c-1.1,0.3-1.9,0.8-2.6,1.3
		c-0.7,0.5-1.2,1.1-1.5,1.8c-0.3,0.7-0.5,1.4-0.5,2.1c0,0.4,0,0.7,0.1,1c0.1,0.3,0.2,0.6,0.4,1c0.8-0.5,1.7-0.8,2.7-0.8
		c0.9,0,1.5,0.1,2,0.4s0.9,0.6,1.1,1c0.3,0.4,0.4,0.9,0.5,1.4s0.1,1,0.1,1.5V1538.5z M-1084.6,1482.4c0-0.5,0-1,0.1-1.5
		c0.1-0.5,0.2-1,0.5-1.4c0.2-0.4,0.6-0.8,1.1-1c0.5-0.3,1.1-0.4,2-0.4c1,0,1.9,0.3,2.7,0.8c0.2-0.4,0.3-0.7,0.4-1
		c0.1-0.3,0.1-0.6,0.1-1c0-0.7-0.2-1.4-0.5-2.1c-0.3-0.7-0.8-1.3-1.5-1.8c-0.7-0.5-1.6-1-2.6-1.3c-1.1-0.3-2.4-0.5-3.9-0.5
		c-3.4,0-8.9,3.4-8.9,8.9v4.1v0.3v52v4.1c0,5.5,5.4,8.9,8.9,8.9c1.6,0,2.9-0.2,3.9-0.5c1.1-0.3,1.9-0.8,2.6-1.3
		c0.7-0.5,1.2-1.1,1.5-1.8c0.3-0.7,0.5-1.4,0.5-2.1c0-0.4,0-0.7-0.1-1c-0.1-0.3-0.2-0.6-0.4-1c-0.8,0.5-1.7,0.8-2.7,0.8
		c-0.9,0-1.5-0.1-2-0.4s-0.9-0.6-1.1-1c-0.3-0.4-0.4-0.9-0.5-1.4c-0.1-0.5-0.1-1-0.1-1.5V1482.4z M-994.2,1502.5v15.2
		c0,8-5.9,10.9-11.5,10.9s-11.6-2.9-11.6-10.9v-15.2c0-7.2,4.4-11.5,11.6-11.5C-998.6,1490.9-994.2,1495.3-994.2,1502.5z
		 M-1000.4,1502.6c0-3.7-1.7-5.5-5.3-5.5s-5.3,1.7-5.3,5.5v14.7c0,4.5,3.7,5,5.3,5c2,0,5.3-0.7,5.3-5.1V1502.6z M-955.5,1502.5v15.2
		c0,8-5.9,10.9-11.5,10.9s-11.6-2.9-11.6-10.9v-15.2c0-7.2,4.4-11.5,11.7-11.5C-959.9,1490.9-955.5,1495.3-955.5,1502.5z
		 M-961.7,1502.6c0-3.7-1.7-5.5-5.3-5.5s-5.3,1.7-5.3,5.5v14.7c0,4.5,3.7,5,5.3,5c2,0,5.3-0.7,5.3-5.1V1502.6z M-1040.2,1513.9
		l-13.9-22.4h-5.8l0.3,36.4h6.5v-22.5l13.9,22.4l5.5,0.1v-36.4h-6.5V1513.9z M-893.7,1491.3h-6.5v36.7h20.2v-6.3h-13.7V1491.3z
		 M-819.6,1505.5c-3.3-1.5-6.2-2.7-6.1-4.7c0-0.8,0.5-1.9,1-2.3c0.9-0.8,2.7-1.2,4.9-1.1c1.7,0.1-1.7-6.4-2.6-6.3
		c-6.5,0.6-9.7,4.9-10,9c-0.4,6.7,5.3,9.2,9.8,11.2s7.2,3.4,7,6.5c-0.2,3.5-3.6,4.3-5.6,4.3c-0.3,0-0.5,0-0.6,0
		c-3.6-0.2-5.8-2.8-5.9-5v-1.6h-6.5v1.6c-0.1,5.2,4,10.8,12.1,11.3c0.5,0,0.9,0,1.4,0c7.4,0,11.6-3.8,12.1-10.5
		C-808.3,1510.4-814.8,1507.7-819.6,1505.5z M-866.2,1528h18.8v-6.4h-12.3v-9.8h8.7v-6.6h-8.6v-7.4h12.4v-6.4l-18.9-0.1v36.7H-866.2
		z M-916.4,1503.8v13c0,7.2-4.1,11.1-11.7,11.1h-11.5v-36.4h10.6C-921.3,1491.4-916.4,1496.2-916.4,1503.8z M-922.7,1503.5
		c0-5.2-4.1-5.8-5.9-5.8h-4.8v24.5h4.5c4.4,0,6.2-1.4,6.2-4.7V1503.5z M-815.2,1501.5l6.3-1c-0.5-3.6-2.9-7-7.1-8.5
		c-1.8-0.7-3.7-1-6.1-0.9c-0.5,0-1,0.1-1.5,0.2l1.2,6.2c0.3,0,0.5-0.1,0.6-0.1C-818.1,1497.4-815.7,1499.4-815.2,1501.5z"/>
</g>
</svg>
