<?xml version="1.0" encoding="utf-8"?>
<!-- Generator: Adobe Illustrator 19.0.1, SVG Export Plug-In . SVG Version: 6.00 Build 0)  -->
<svg version="1.1" id="Layer_1" xmlns="http://www.w3.org/2000/svg" xmlns:xlink="http://www.w3.org/1999/xlink" x="0px" y="0px"
	 viewBox="-2050.4 1403.9 30.3 28.2" style="enable-background:new -2050.4 1403.9 30.3 28.2;" xml:space="preserve">

<path class="st0" d="M-2140.6,1426.5l-14.7-14.7c-0.5-0.5-0.5-1.3,0-1.8s1.3-0.5,1.8,0l13,13l13-13c0.5-0.5,1.3-0.5,1.8,0
	s0.5,1.3,0,1.8L-2140.6,1426.5z"/>
<g>
	<path class="st0" d="M-2035.3,1432.1l-14.7-14.7c-0.5-0.5-0.5-1.3,0-1.8s1.3-0.5,1.8,0l13,13l13-13c0.5-0.5,1.3-0.5,1.8,0
		s0.5,1.3,0,1.8L-2035.3,1432.1z"/>
	<path class="st0" d="M-2035.3,1420.8l-14.7-14.7c-0.5-0.5-0.5-1.3,0-1.8s1.3-0.5,1.8,0l13,13l13-13c0.5-0.5,1.3-0.5,1.8,0
		s0.5,1.3,0,1.8L-2035.3,1420.8z"/>
</g>
</svg>
