<?xml version="1.0" encoding="utf-8"?>
<!-- Generator: Adobe Illustrator 19.0.1, SVG Export Plug-In . SVG Version: 6.00 Build 0)  -->
<svg version="1.1" id="Layer_1" xmlns="http://www.w3.org/2000/svg" xmlns:xlink="http://www.w3.org/1999/xlink" x="0px" y="0px"
	 viewBox="-1735.5 1298.8 320.9 237.8" style="enable-background:new -1735.5 1298.8 320.9 237.8;" xml:space="preserve">
<style type="text/css">
	.st0{fill:url(#SVGID_1_);}
	.st1{fill:#FFFFFF;}
</style>
<linearGradient id="SVGID_1_" gradientUnits="userSpaceOnUse" x1="-1735.4501" y1="1416.1498" x2="-1414.5499" y2="1416.1498" gradientTransform="matrix(1 0 0 1 0 1.5002)">
	<stop  offset="0" style="stop-color:#F7A600"/>
	<stop  offset="0.2517" style="stop-color:#F28D00"/>
	<stop  offset="0.7994" style="stop-color:#E64610"/>
	<stop  offset="1" style="stop-color:#E32313"/>
</linearGradient>
<path class="st0" d="M-1644.4,1431.3c-4.3,0-8.5-0.3-12.5-0.7c-4.1-0.5-7.7-1.5-11-3s-5.8-3.8-7.8-6.8c-1.9-3-2.9-7.1-2.9-12.2v-79
	c0-1.3-0.1-2.7-0.4-4.1c-0.2-1.4-0.7-2.7-1.4-3.8c-0.7-1.2-1.7-2.1-3-2.8c-1.3-0.7-3.2-1.1-5.5-1.1c-3,0-5.5,0.7-7.5,2.2
	c-0.9-1.9-1.4-3.7-1.4-5.3c0-1.9,0.4-3.9,1.3-5.7c0.9-1.9,2.3-3.5,4.2-5c1.9-1.4,4.3-2.6,7.2-3.5c2.9-0.9,6.5-1.4,10.8-1.4
	c9.5,0,16.8,2.2,22.1,6.5c5.2,4.4,7.8,10.4,7.8,18L-1644.4,1431.3L-1644.4,1431.3z M-1568.6,1421.2c0.9-1.9,1.3-3.8,1.3-5.7
	c0-1-0.1-1.9-0.4-2.6c-0.2-0.8-0.6-1.7-1.1-2.6c-2.2,1.4-4.7,2.2-7.5,2.2c-2.3,0-4.2-0.4-5.5-1.1s-2.3-1.7-3-2.8
	c-0.7-1.2-1.2-2.4-1.4-3.8s-0.4-2.8-0.4-4.1v-101.9c-4.3,0-8.5,0.2-12.5,0.7c-4.1,0.5-7.7,1.5-11,3s-5.9,3.8-7.8,6.8
	c-1.9,3-2.9,7.1-2.9,12.2v85c0,7.6,2.6,13.6,7.8,18s12.6,6.5,22.1,6.5c4.3,0,7.9-0.5,10.8-1.4c2.9-0.9,5.3-2.1,7.2-3.5
	C-1570.9,1424.7-1569.6,1422.9-1568.6,1421.2z M-1710.8,1303.5c-2.8-1.6-6.1-2.8-9.7-3.4c-3.6-0.7-7.4-1-11.1-1h-3.8v110.4
	c0,4.5,0.9,8.1,2.7,10.9c1.8,2.8,4.2,5,7.1,6.5c2.9,1.6,6.3,2.7,10.1,3.3s7.8,0.9,11.9,0.9h2.4V1321c0-4.4-0.9-7.9-2.6-10.7
	C-1705.8,1307.4-1708,1305.3-1710.8,1303.5z M-1458.1,1426.2c1.9-1.5,3.3-3.1,4.1-5c0.9-1.9,1.3-3.8,1.3-5.7c0-1-0.1-1.9-0.4-2.6
	c-0.2-0.8-0.6-1.7-1.1-2.6c-2.2,1.4-4.7,2.2-7.5,2.2c-2.3,0-4.2-0.4-5.5-1.1s-2.3-1.7-3-2.8c-0.7-1.2-1.2-2.4-1.4-3.8
	s-0.3-2.8-0.3-4.1v-101.9c-4.3,0-8.5,0.2-12.5,0.7c-4.1,0.5-7.7,1.5-11,3c-3.3,1.5-5.9,3.8-7.8,6.8s-2.9,7.1-2.9,12.2v85
	c0,7.6,2.6,13.6,7.8,18c5.2,4.4,12.6,6.5,22.1,6.5c4.3,0,7.9-0.5,10.8-1.4C-1462.3,1428.8-1459.9,1427.5-1458.1,1426.2z
	 M-1417.8,1420.7c1.9-3,2.9-7.1,2.9-12.2v-85c0-7.6-2.6-13.6-7.8-18c-5.2-4.4-12.6-6.5-22.1-6.5c-4.3,0-7.9,0.4-10.8,1.4
	c-2.9,0.9-5.3,2.1-7.2,3.5c-1.9,1.5-3.3,3.1-4.1,5c-0.9,1.9-1.3,3.8-1.3,5.7c0,1.6,0.5,3.3,1.4,5.3c2-1.5,4.5-2.2,7.5-2.2
	c2.3,0,4.2,0.4,5.5,1.1s2.3,1.7,3,2.8c0.7,1.1,1.2,2.4,1.4,3.8s0.4,2.8,0.4,4.1v101.7c4.3,0,8.5-0.3,12.5-0.7c4.1-0.5,7.7-1.5,11-3
	C-1422.3,1425.9-1419.6,1423.7-1417.8,1420.7z M-1532.6,1420.7c1.9-3,2.9-7.1,2.9-12.2v-85c0-7.6-2.6-13.6-7.8-18s-12.6-6.5-22-6.5
	c-4.3,0-7.9,0.4-10.8,1.4c-2.9,0.9-5.3,2.1-7.2,3.5c-1.9,1.5-3.3,3.1-4.2,5c-0.9,1.9-1.3,3.8-1.3,5.7c0,1.6,0.5,3.3,1.4,5.3
	c2-1.5,4.5-2.2,7.5-2.2c2.3,0,4.2,0.4,5.5,1.1s2.3,1.7,3,2.8c0.7,1.1,1.2,2.4,1.4,3.8s0.3,2.8,0.3,4.1v101.7c4.3,0,8.5-0.3,12.5-0.7
	c4.1-0.5,7.7-1.5,11-3C-1537.1,1425.9-1534.4,1423.7-1532.6,1420.7z M-1425.1,1525.3c0,0.5,0,1-0.1,1.5c-0.1,0.5-0.2,1-0.5,1.4
	c-0.2,0.4-0.6,0.8-1.1,1c-0.5,0.3-1.1,0.4-2,0.4c-1,0-1.9-0.3-2.7-0.8c-0.2,0.4-0.3,0.7-0.4,1s-0.1,0.6-0.1,1c0,0.7,0.2,1.4,0.5,2.1
	s0.8,1.3,1.5,1.8s1.6,1,2.6,1.3c1.1,0.3,2.4,0.5,3.9,0.5c3.4,0,8.9-3.4,8.9-8.9v-4.1v-0.3v-52v-4.1c0-5.5-5.4-8.9-8.9-8.9
	c-1.6,0-2.9,0.2-3.9,0.5c-1.1,0.3-1.9,0.8-2.6,1.3s-1.2,1.1-1.5,1.8c-0.3,0.7-0.5,1.4-0.5,2.1c0,0.4,0,0.7,0.1,1s0.2,0.6,0.4,1
	c0.8-0.5,1.7-0.8,2.7-0.8c0.9,0,1.5,0.1,2,0.4s0.9,0.6,1.1,1c0.3,0.4,0.4,0.9,0.5,1.4c0.1,0.5,0.1,1,0.1,1.5V1525.3z
	 M-1724.9,1469.3c0-0.5,0-1,0.1-1.5s0.2-1,0.5-1.4c0.2-0.4,0.6-0.8,1.1-1c0.5-0.3,1.1-0.4,2-0.4c1,0,1.9,0.3,2.7,0.8
	c0.2-0.4,0.3-0.7,0.4-1s0.1-0.6,0.1-1c0-0.7-0.2-1.4-0.5-2.1s-0.8-1.3-1.5-1.8s-1.6-1-2.6-1.3c-1.1-0.3-2.4-0.5-3.9-0.5
	c-3.4,0-8.9,3.4-8.9,8.9v4.1v0.3v52v4.1c0,5.5,5.4,8.9,8.9,8.9c1.6,0,2.9-0.2,3.9-0.5c1.1-0.3,1.9-0.8,2.6-1.3s1.2-1.1,1.5-1.8
	c0.3-0.7,0.5-1.4,0.5-2.1c0-0.4,0-0.7-0.1-1s-0.2-0.6-0.4-1c-0.8,0.5-1.7,0.8-2.7,0.8c-0.9,0-1.5-0.1-2-0.4s-0.9-0.6-1.1-1
	c-0.3-0.4-0.4-0.9-0.5-1.4s-0.1-1-0.1-1.5V1469.3z M-1634.6,1489.3v15.2c0,8-5.9,10.9-11.5,10.9c-5.6,0-11.6-2.9-11.6-10.9v-15.2
	c0-7.2,4.4-11.5,11.6-11.5C-1638.9,1477.8-1634.6,1482.2-1634.6,1489.3z M-1640.8,1489.4c0-3.7-1.7-5.5-5.3-5.5
	c-3.6,0-5.3,1.7-5.3,5.5v14.7c0,4.5,3.7,5,5.3,5c2,0,5.3-0.7,5.3-5.1V1489.4z M-1595.8,1489.3v15.2c0,8-5.9,10.9-11.5,10.9
	s-11.6-2.9-11.6-10.9v-15.2c0-7.2,4.4-11.5,11.7-11.5C-1600.3,1477.8-1595.8,1482.2-1595.8,1489.3z M-1602.1,1489.4
	c0-3.7-1.7-5.5-5.3-5.5s-5.3,1.7-5.3,5.5v14.7c0,4.5,3.7,5,5.3,5c2,0,5.3-0.7,5.3-5.1V1489.4z M-1680.5,1500.8l-13.9-22.4h-5.8
	l0.3,36.4h6.5v-22.5l13.9,22.4l5.5,0.1v-36.4h-6.5V1500.8z M-1534.1,1478.2h-6.5v36.7h20.2v-6.3h-13.7V1478.2z M-1459.9,1492.3
	c-3.3-1.5-6.2-2.7-6.1-4.7c0-0.8,0.5-1.9,1-2.3c0.9-0.8,2.7-1.2,4.9-1.1c1.7,0.1-1.7-6.4-2.6-6.3c-6.5,0.6-9.7,4.9-10,9
	c-0.4,6.7,5.3,9.2,9.8,11.2s7.2,3.4,7,6.5c-0.2,3.5-3.6,4.3-5.6,4.3c-0.3,0-0.5,0-0.6,0c-3.6-0.2-5.8-2.8-5.9-5v-1.6h-6.5v1.6
	c-0.1,5.2,4,10.8,12.1,11.3c0.5,0,0.9,0,1.4,0c7.4,0,11.6-3.8,12.1-10.5C-1448.6,1497.3-1455.1,1494.5-1459.9,1492.3z
	 M-1506.6,1514.8h18.8v-6.4h-12.3v-9.8h8.7v-6.6h-8.6v-7.4h12.4v-6.4l-18.9-0.1v36.7L-1506.6,1514.8L-1506.6,1514.8z
	 M-1556.8,1490.7v13c0,7.2-4.1,11.1-11.7,11.1h-11.5v-36.4h10.6C-1561.6,1478.3-1556.8,1483-1556.8,1490.7z M-1563.1,1490.3
	c0-5.2-4.1-5.8-5.9-5.8h-4.8v24.5h4.5c4.4,0,6.2-1.4,6.2-4.7V1490.3z M-1455.6,1488.3l6.3-1c-0.5-3.6-2.9-7-7.1-8.5
	c-1.8-0.7-3.7-1-6.1-0.9c-0.5,0-1,0.1-1.5,0.2l1.2,6.2c0.3,0,0.5-0.1,0.6-0.1C-1458.4,1484.3-1456.1,1486.3-1455.6,1488.3z"/>
<g>
	<path class="st1" d="M-1644.4,1431.3c-4.3,0-8.5-0.3-12.5-0.7c-4.1-0.5-7.7-1.5-11-3s-5.8-3.8-7.8-6.8c-1.9-3-2.9-7.1-2.9-12.2v-79
		c0-1.3-0.1-2.7-0.4-4.1c-0.2-1.4-0.7-2.7-1.4-3.8c-0.7-1.2-1.7-2.1-3-2.8c-1.3-0.7-3.2-1.1-5.5-1.1c-3,0-5.5,0.7-7.5,2.2
		c-0.9-1.9-1.4-3.7-1.4-5.3c0-1.9,0.4-3.9,1.3-5.7c0.9-1.9,2.3-3.5,4.2-5c1.9-1.4,4.3-2.6,7.2-3.5c2.9-0.9,6.5-1.4,10.8-1.4
		c9.5,0,16.8,2.2,22.1,6.5c5.2,4.4,7.8,10.4,7.8,18L-1644.4,1431.3L-1644.4,1431.3z M-1568.6,1421.2c0.9-1.9,1.3-3.8,1.3-5.7
		c0-1-0.1-1.9-0.4-2.6c-0.2-0.8-0.6-1.7-1.1-2.6c-2.2,1.4-4.7,2.2-7.5,2.2c-2.3,0-4.2-0.4-5.5-1.1s-2.3-1.7-3-2.8
		c-0.7-1.2-1.2-2.4-1.4-3.8s-0.4-2.8-0.4-4.1v-101.9c-4.3,0-8.5,0.2-12.5,0.7c-4.1,0.5-7.7,1.5-11,3s-5.9,3.8-7.8,6.8
		c-1.9,3-2.9,7.1-2.9,12.2v85c0,7.6,2.6,13.6,7.8,18s12.6,6.5,22.1,6.5c4.3,0,7.9-0.5,10.8-1.4c2.9-0.9,5.3-2.1,7.2-3.5
		C-1570.9,1424.7-1569.6,1422.9-1568.6,1421.2z M-1710.8,1303.5c-2.8-1.6-6.1-2.8-9.7-3.4c-3.6-0.7-7.4-1-11.1-1h-3.8v110.4
		c0,4.5,0.9,8.1,2.7,10.9c1.8,2.8,4.2,5,7.1,6.5c2.9,1.6,6.3,2.7,10.1,3.3s7.8,0.9,11.9,0.9h2.4V1321c0-4.4-0.9-7.9-2.6-10.7
		C-1705.8,1307.4-1708,1305.3-1710.8,1303.5z M-1458.1,1426.2c1.9-1.5,3.3-3.1,4.1-5c0.9-1.9,1.3-3.8,1.3-5.7c0-1-0.1-1.9-0.4-2.6
		c-0.2-0.8-0.6-1.7-1.1-2.6c-2.2,1.4-4.7,2.2-7.5,2.2c-2.3,0-4.2-0.4-5.5-1.1s-2.3-1.7-3-2.8c-0.7-1.2-1.2-2.4-1.4-3.8
		s-0.3-2.8-0.3-4.1v-101.9c-4.3,0-8.5,0.2-12.5,0.7c-4.1,0.5-7.7,1.5-11,3c-3.3,1.5-5.9,3.8-7.8,6.8s-2.9,7.1-2.9,12.2v85
		c0,7.6,2.6,13.6,7.8,18c5.2,4.4,12.6,6.5,22.1,6.5c4.3,0,7.9-0.5,10.8-1.4C-1462.3,1428.8-1459.9,1427.5-1458.1,1426.2z
		 M-1417.8,1420.7c1.9-3,2.9-7.1,2.9-12.2v-85c0-7.6-2.6-13.6-7.8-18c-5.2-4.4-12.6-6.5-22.1-6.5c-4.3,0-7.9,0.4-10.8,1.4
		c-2.9,0.9-5.3,2.1-7.2,3.5c-1.9,1.5-3.3,3.1-4.1,5c-0.9,1.9-1.3,3.8-1.3,5.7c0,1.6,0.5,3.3,1.4,5.3c2-1.5,4.5-2.2,7.5-2.2
		c2.3,0,4.2,0.4,5.5,1.1s2.3,1.7,3,2.8c0.7,1.1,1.2,2.4,1.4,3.8s0.4,2.8,0.4,4.1v101.7c4.3,0,8.5-0.3,12.5-0.7c4.1-0.5,7.7-1.5,11-3
		C-1422.3,1425.9-1419.6,1423.7-1417.8,1420.7z M-1532.6,1420.7c1.9-3,2.9-7.1,2.9-12.2v-85c0-7.6-2.6-13.6-7.8-18s-12.6-6.5-22-6.5
		c-4.3,0-7.9,0.4-10.8,1.4c-2.9,0.9-5.3,2.1-7.2,3.5c-1.9,1.5-3.3,3.1-4.2,5c-0.9,1.9-1.3,3.8-1.3,5.7c0,1.6,0.5,3.3,1.4,5.3
		c2-1.5,4.5-2.2,7.5-2.2c2.3,0,4.2,0.4,5.5,1.1s2.3,1.7,3,2.8c0.7,1.1,1.2,2.4,1.4,3.8s0.3,2.8,0.3,4.1v101.7
		c4.3,0,8.5-0.3,12.5-0.7c4.1-0.5,7.7-1.5,11-3C-1537.1,1425.9-1534.4,1423.7-1532.6,1420.7z M-1425.1,1525.3c0,0.5,0,1-0.1,1.5
		c-0.1,0.5-0.2,1-0.5,1.4c-0.2,0.4-0.6,0.8-1.1,1c-0.5,0.3-1.1,0.4-2,0.4c-1,0-1.9-0.3-2.7-0.8c-0.2,0.4-0.3,0.7-0.4,1
		s-0.1,0.6-0.1,1c0,0.7,0.2,1.4,0.5,2.1s0.8,1.3,1.5,1.8s1.6,1,2.6,1.3c1.1,0.3,2.4,0.5,3.9,0.5c3.4,0,8.9-3.4,8.9-8.9v-4.1v-0.3
		v-52v-4.1c0-5.5-5.4-8.9-8.9-8.9c-1.6,0-2.9,0.2-3.9,0.5c-1.1,0.3-1.9,0.8-2.6,1.3s-1.2,1.1-1.5,1.8c-0.3,0.7-0.5,1.4-0.5,2.1
		c0,0.4,0,0.7,0.1,1s0.2,0.6,0.4,1c0.8-0.5,1.7-0.8,2.7-0.8c0.9,0,1.5,0.1,2,0.4s0.9,0.6,1.1,1c0.3,0.4,0.4,0.9,0.5,1.4
		c0.1,0.5,0.1,1,0.1,1.5V1525.3z M-1724.9,1469.3c0-0.5,0-1,0.1-1.5s0.2-1,0.5-1.4c0.2-0.4,0.6-0.8,1.1-1c0.5-0.3,1.1-0.4,2-0.4
		c1,0,1.9,0.3,2.7,0.8c0.2-0.4,0.3-0.7,0.4-1s0.1-0.6,0.1-1c0-0.7-0.2-1.4-0.5-2.1s-0.8-1.3-1.5-1.8s-1.6-1-2.6-1.3
		c-1.1-0.3-2.4-0.5-3.9-0.5c-3.4,0-8.9,3.4-8.9,8.9v4.1v0.3v52v4.1c0,5.5,5.4,8.9,8.9,8.9c1.6,0,2.9-0.2,3.9-0.5
		c1.1-0.3,1.9-0.8,2.6-1.3s1.2-1.1,1.5-1.8c0.3-0.7,0.5-1.4,0.5-2.1c0-0.4,0-0.7-0.1-1s-0.2-0.6-0.4-1c-0.8,0.5-1.7,0.8-2.7,0.8
		c-0.9,0-1.5-0.1-2-0.4s-0.9-0.6-1.1-1c-0.3-0.4-0.4-0.9-0.5-1.4s-0.1-1-0.1-1.5V1469.3z M-1634.6,1489.3v15.2
		c0,8-5.9,10.9-11.5,10.9c-5.6,0-11.6-2.9-11.6-10.9v-15.2c0-7.2,4.4-11.5,11.6-11.5C-1638.9,1477.8-1634.6,1482.2-1634.6,1489.3z
		 M-1640.8,1489.4c0-3.7-1.7-5.5-5.3-5.5c-3.6,0-5.3,1.7-5.3,5.5v14.7c0,4.5,3.7,5,5.3,5c2,0,5.3-0.7,5.3-5.1V1489.4z
		 M-1595.8,1489.3v15.2c0,8-5.9,10.9-11.5,10.9s-11.6-2.9-11.6-10.9v-15.2c0-7.2,4.4-11.5,11.7-11.5
		C-1600.3,1477.8-1595.8,1482.2-1595.8,1489.3z M-1602.1,1489.4c0-3.7-1.7-5.5-5.3-5.5s-5.3,1.7-5.3,5.5v14.7c0,4.5,3.7,5,5.3,5
		c2,0,5.3-0.7,5.3-5.1V1489.4z M-1680.5,1500.8l-13.9-22.4h-5.8l0.3,36.4h6.5v-22.5l13.9,22.4l5.5,0.1v-36.4h-6.5V1500.8z
		 M-1534.1,1478.2h-6.5v36.7h20.2v-6.3h-13.7V1478.2z M-1459.9,1492.3c-3.3-1.5-6.2-2.7-6.1-4.7c0-0.8,0.5-1.9,1-2.3
		c0.9-0.8,2.7-1.2,4.9-1.1c1.7,0.1-1.7-6.4-2.6-6.3c-6.5,0.6-9.7,4.9-10,9c-0.4,6.7,5.3,9.2,9.8,11.2s7.2,3.4,7,6.5
		c-0.2,3.5-3.6,4.3-5.6,4.3c-0.3,0-0.5,0-0.6,0c-3.6-0.2-5.8-2.8-5.9-5v-1.6h-6.5v1.6c-0.1,5.2,4,10.8,12.1,11.3c0.5,0,0.9,0,1.4,0
		c7.4,0,11.6-3.8,12.1-10.5C-1448.6,1497.3-1455.1,1494.5-1459.9,1492.3z M-1506.6,1514.8h18.8v-6.4h-12.3v-9.8h8.7v-6.6h-8.6v-7.4
		h12.4v-6.4l-18.9-0.1v36.7L-1506.6,1514.8L-1506.6,1514.8z M-1556.8,1490.7v13c0,7.2-4.1,11.1-11.7,11.1h-11.5v-36.4h10.6
		C-1561.6,1478.3-1556.8,1483-1556.8,1490.7z M-1563.1,1490.3c0-5.2-4.1-5.8-5.9-5.8h-4.8v24.5h4.5c4.4,0,6.2-1.4,6.2-4.7V1490.3z
		 M-1455.6,1488.3l6.3-1c-0.5-3.6-2.9-7-7.1-8.5c-1.8-0.7-3.7-1-6.1-0.9c-0.5,0-1,0.1-1.5,0.2l1.2,6.2c0.3,0,0.5-0.1,0.6-0.1
		C-1458.4,1484.3-1456.1,1486.3-1455.6,1488.3z"/>
</g>
</svg>
